<svg version="1.1" id="Layer_1" xmlns="http://www.w3.org/2000/svg" xmlns:xlink="http://www.w3.org/1999/xlink" x="0px" y="0px"
	 width="100%" viewBox="0 0 720 405" enable-background="new 0 0 720 405" xml:space="preserve">
<path fill="#9BD387" opacity="1.000000" stroke="none" 
	d="
M721.000000,173.000000 
	C721.000000,222.687561 721.000000,272.375122 720.676514,322.542175 
	C719.575073,323.290192 718.797180,323.558716 717.908936,323.477600 
	C716.295959,322.884888 714.627319,322.092896 713.317810,322.488739 
	C705.402100,324.881714 697.524353,327.423187 689.740723,330.213043 
	C687.958130,330.851990 686.594299,332.659393 684.627991,333.963440 
	C682.848511,334.008942 681.478821,334.020111 679.660767,333.986420 
	C677.390076,334.063843 675.551636,334.071320 673.747925,334.325836 
	C651.036438,337.531036 628.361694,336.485168 605.759888,333.410950 
	C592.792358,331.647217 579.912781,329.236084 566.593018,327.064697 
	C530.141357,319.216614 494.246002,310.528870 457.324554,307.645325 
	C437.008453,306.058594 416.570526,305.822540 396.797974,310.872406 
	C378.976807,315.423920 361.688660,322.068420 344.195740,327.881165 
	C343.285217,328.183716 342.659241,329.342590 341.529663,330.073425 
	C339.778687,330.308289 338.398865,330.572510 336.992432,330.467102 
	C335.591431,329.125977 334.336578,327.585754 332.824890,327.268219 
	C309.745422,322.421021 286.634094,317.682251 262.822510,321.012329 
	C251.426102,322.606110 240.376968,325.386139 229.711868,330.866058 
	C221.123398,329.432404 212.929764,328.094818 204.792984,326.472198 
	C169.463455,319.426849 134.469604,310.571533 98.374496,307.773346 
	C74.499802,305.922485 50.862980,306.750519 27.613796,312.756409 
	C18.632053,315.076599 9.864911,318.227539 0.999999,321.000000 
	C1.000000,274.312439 1.000000,227.624878 1.383155,180.463745 
	C2.567880,179.789368 3.418965,179.700562 4.163709,179.371246 
	C19.320625,172.669128 35.391048,169.407288 51.724358,170.314346 
	C67.209702,171.174301 82.653610,173.873642 97.953011,176.658203 
	C111.253998,179.079025 124.241211,183.204315 137.528397,185.726593 
	C148.579636,187.824402 159.868347,188.663712 171.046478,190.102325 
	C191.543350,192.740280 211.246201,189.384216 229.858963,180.924881 
	C254.401733,169.770432 279.789764,168.117096 305.859924,172.560623 
	C317.424530,174.531723 328.820312,177.475647 340.327148,179.808044 
	C355.428894,182.869141 370.505371,186.122360 385.702545,188.626251 
	C400.795441,191.112976 416.125214,192.810440 431.218964,189.054260 
	C443.718140,185.943771 456.097260,182.187683 468.273468,177.977142 
	C492.579803,169.571991 517.208374,169.852936 541.983887,174.599716 
	C559.188416,177.895966 576.179688,182.313980 593.396423,185.535095 
	C607.692932,188.209869 622.119629,190.839249 636.596924,191.731262 
	C654.342041,192.824585 671.639038,189.282562 688.045959,182.007080 
	C698.558716,177.345276 709.275269,173.291718 721.000000,173.000000 
z"/>
<path fill="#000000" opacity="1.000000" stroke="none" 
	d="
M1.000000,75.000000 
	C1.000000,50.345329 1.000000,25.690659 1.000000,1.056812 
	C241.000000,1.056812 481.000000,1.056812 721.000000,1.056812 
	C721.000000,36.096642 721.000000,71.079666 720.595581,106.530167 
	C718.236816,107.655571 716.287048,108.327087 714.327637,108.969292 
	C696.354736,114.859932 678.127502,119.656914 659.120422,120.415939 
	C647.280090,120.888771 635.388245,121.396416 623.574829,120.797623 
	C614.166504,120.320747 604.811646,118.367737 595.487305,116.755943 
	C581.848328,114.398315 568.241943,111.841682 554.651917,109.213631 
	C544.648865,107.279228 534.723938,104.935043 524.710144,103.063103 
	C512.709229,100.819717 500.532013,99.402580 488.648651,96.678757 
	C475.077057,93.567970 461.334869,92.611404 447.566132,92.136971 
	C437.155518,91.778252 426.702850,92.698135 416.267273,92.990311 
	C399.425995,93.461845 383.022736,97.025375 367.678558,103.385941 
	C344.026245,113.190460 319.849670,119.807816 294.270599,120.852859 
	C284.144928,121.266556 273.955017,121.499428 263.857880,120.840866 
	C253.222107,120.147179 242.601227,118.646919 232.084991,116.848991 
	C219.627228,114.719116 207.282516,111.922195 194.899567,109.362297 
	C184.924179,107.300102 174.982697,105.070610 164.993301,103.080345 
	C154.949097,101.079147 144.880280,99.190292 134.791901,97.425667 
	C127.425194,96.137093 120.034088,94.912178 112.607483,94.065758 
	C106.654419,93.387276 100.633545,93.076187 94.639458,93.029747 
	C79.277725,92.910728 63.825184,92.008797 48.575974,93.337189 
	C32.889103,94.703735 17.598948,99.090515 2.547377,104.907623 
	C2.113222,96.248230 2.103460,87.820053 1.957658,79.394241 
	C1.932224,77.924416 1.333789,76.464493 1.000000,75.000000 
z"/>
<path fill="#7FBF68" opacity="1.000000" stroke="none" 
	d="
M2.925605,105.139641 
	C17.598948,99.090515 32.889103,94.703735 48.575974,93.337189 
	C63.825184,92.008797 79.277725,92.910728 94.639458,93.029747 
	C100.633545,93.076187 106.654419,93.387276 112.607483,94.065758 
	C120.034088,94.912178 127.425194,96.137093 134.791901,97.425667 
	C144.880280,99.190292 154.949097,101.079147 164.993301,103.080345 
	C174.982697,105.070610 184.924179,107.300102 194.899567,109.362297 
	C207.282516,111.922195 219.627228,114.719116 232.084991,116.848991 
	C242.601227,118.646919 253.222107,120.147179 263.857880,120.840866 
	C273.955017,121.499428 284.144928,121.266556 294.270599,120.852859 
	C319.849670,119.807816 344.026245,113.190460 367.678558,103.385941 
	C383.022736,97.025375 399.425995,93.461845 416.267273,92.990311 
	C426.702850,92.698135 437.155518,91.778252 447.566132,92.136971 
	C461.334869,92.611404 475.077057,93.567970 488.648651,96.678757 
	C500.532013,99.402580 512.709229,100.819717 524.710144,103.063103 
	C534.723938,104.935043 544.648865,107.279228 554.651917,109.213631 
	C568.241943,111.841682 581.848328,114.398315 595.487305,116.755943 
	C604.811646,118.367737 614.166504,120.320747 623.574829,120.797623 
	C635.388245,121.396416 647.280090,120.888771 659.120422,120.415939 
	C678.127502,119.656914 696.354736,114.859932 714.327637,108.969292 
	C716.287048,108.327087 718.236816,107.655571 720.595581,106.998825 
	C721.000000,128.687561 721.000000,150.375122 721.000000,172.531342 
	C709.275269,173.291718 698.558716,177.345276 688.045959,182.007080 
	C671.639038,189.282562 654.342041,192.824585 636.596924,191.731262 
	C622.119629,190.839249 607.692932,188.209869 593.396423,185.535095 
	C576.179688,182.313980 559.188416,177.895966 541.983887,174.599716 
	C517.208374,169.852936 492.579803,169.571991 468.273468,177.977142 
	C456.097260,182.187683 443.718140,185.943771 431.218964,189.054260 
	C416.125214,192.810440 400.795441,191.112976 385.702545,188.626251 
	C370.505371,186.122360 355.428894,182.869141 340.327148,179.808044 
	C328.820312,177.475647 317.424530,174.531723 305.859924,172.560623 
	C279.789764,168.117096 254.401733,169.770432 229.858963,180.924881 
	C211.246201,189.384216 191.543350,192.740280 171.046478,190.102325 
	C159.868347,188.663712 148.579636,187.824402 137.528397,185.726593 
	C124.241211,183.204315 111.253998,179.079025 97.953011,176.658203 
	C82.653610,173.873642 67.209702,171.174301 51.724358,170.314346 
	C35.391048,169.407288 19.320625,172.669128 4.163709,179.371246 
	C3.418965,179.700562 2.567880,179.789368 1.383155,179.995087 
	C1.000000,155.645767 1.000000,131.291550 1.287550,106.495453 
	C2.025269,105.748947 2.475437,105.444290 2.925605,105.139641 
z"/>
<path fill="#000000" opacity="1.000000" stroke="none" 
	d="
M680.109070,334.031281 
	C681.478821,334.020111 682.848511,334.008942 685.010681,333.910797 
	C696.541809,330.491608 707.280518,327.159424 718.019287,323.827240 
	C718.797180,323.558716 719.575073,323.290192 720.676514,323.010834 
	C721.000000,350.650085 721.000000,378.300201 721.000000,405.975159 
	C481.000000,405.975159 241.000000,405.975159 1.000000,405.978241 
	C1.000000,403.649384 1.000000,401.317474 1.408890,398.325439 
	C1.878596,376.979187 1.910244,356.292877 2.049937,335.607239 
	C2.062502,333.746674 2.773376,331.890808 3.540978,330.038086 
	C7.831287,328.696838 11.674067,327.093445 15.664470,326.060181 
	C22.740629,324.227936 29.906410,322.741791 37.497375,321.049683 
	C45.294422,320.940033 52.628788,320.891571 60.172596,320.931152 
	C60.382038,321.019196 60.836140,321.035980 61.053474,321.413574 
	C67.049889,322.530304 72.829109,323.268402 78.608002,324.009033 
	C83.397636,324.622803 88.186890,325.239594 93.183289,325.938263 
	C93.390259,326.021484 93.836227,326.035522 94.011574,326.378235 
	C95.450226,326.766144 96.713539,326.811310 98.183823,326.939148 
	C98.390793,327.021790 98.836327,327.035614 99.024109,327.389404 
	C100.798012,327.867340 102.384132,327.991516 104.149734,328.472992 
	C113.160667,330.685303 121.951172,332.772766 130.833649,334.338409 
	C142.805161,336.448608 154.847519,338.157013 167.077271,340.426575 
	C176.075821,340.882507 184.856628,340.987030 193.637238,340.972443 
	C194.805695,340.970520 195.973160,340.364319 197.575119,340.024841 
	C207.058655,337.828644 216.088943,335.560242 225.170013,333.517578 
	C227.694534,332.949738 230.369492,333.050720 233.412506,332.927460 
	C235.511658,333.035583 237.188278,332.928040 238.833435,333.107971 
	C250.386826,334.371368 261.903595,336.230072 273.489258,336.881622 
	C294.921875,338.086914 316.147156,336.055084 337.019073,330.836731 
	C338.398865,330.572510 339.778687,330.308289 341.735687,330.421631 
	C346.899414,331.710480 351.464874,332.749756 356.076447,333.508911 
	C369.660492,335.745087 383.262756,337.870239 397.075745,340.427704 
	C404.859528,340.836731 412.425476,340.856934 420.323425,340.952728 
	C421.103699,340.977295 421.551971,340.926300 422.358643,340.942749 
	C423.522491,340.685974 424.327972,340.361786 425.574249,340.028687 
	C430.064270,339.668152 434.360962,340.069061 438.119385,338.833130 
	C453.515045,333.770416 468.746613,328.208679 484.478943,322.901367 
	C499.266510,322.595215 513.613708,322.218262 528.171326,321.929993 
	C528.381775,322.018616 528.838135,322.035187 529.047729,322.406921 
	C531.828430,322.890381 534.399475,323.002106 537.160950,323.478943 
	C539.281372,324.104492 541.226379,324.284576 543.138916,324.639252 
	C551.081360,326.112213 559.014038,327.637817 567.143311,329.493591 
	C573.297668,331.109039 579.225098,332.571869 585.226990,333.600708 
	C598.421326,335.862640 611.653259,337.905182 625.083740,340.427734 
	C634.078857,340.880066 642.860291,340.978577 651.641418,340.959869 
	C652.810730,340.957367 653.978638,340.359955 655.581238,340.030914 
	C659.216125,339.678772 662.521667,339.723877 665.593933,338.899689 
	C670.513672,337.579926 675.278687,335.683777 680.109070,334.031281 
z"/>
<path fill="#D7F1CE" opacity="1.000000" stroke="none" 
	d="
M93.836227,326.035522 
	C93.836227,326.035522 93.390259,326.021484 92.910141,325.695251 
	C81.898727,323.924683 71.367432,322.480347 60.836140,321.035980 
	C60.836140,321.035980 60.382038,321.019196 59.837097,320.694946 
	C51.873001,320.617401 44.453850,320.864105 37.034695,321.110840 
	C29.906410,322.741791 22.740629,324.227936 15.664470,326.060181 
	C11.674067,327.093445 7.831287,328.696838 3.181012,330.024445 
	C1.960009,330.003662 1.480005,330.001831 1.000000,330.000000 
	C1.000000,327.299988 1.000000,324.599976 0.999999,321.449982 
	C9.864911,318.227539 18.632053,315.076599 27.613796,312.756409 
	C50.862980,306.750519 74.499802,305.922485 98.374496,307.773346 
	C134.469604,310.571533 169.463455,319.426849 204.792984,326.472198 
	C212.929764,328.094818 221.123398,329.432404 230.034164,330.937439 
	C231.510117,331.597412 232.242767,332.221161 232.975418,332.844849 
	C230.369492,333.050720 227.694534,332.949738 225.170013,333.517578 
	C216.088943,335.560242 207.058655,337.828644 197.097961,339.997864 
	C186.410980,340.001923 176.635223,340.019867 166.859467,340.037842 
	C154.847519,338.157013 142.805161,336.448608 130.833649,334.338409 
	C121.951172,332.772766 113.160667,330.685303 103.887970,328.192566 
	C101.909927,327.381775 100.373131,327.208710 98.836327,327.035614 
	C98.836327,327.035614 98.390793,327.021790 97.909485,326.702759 
	C96.230858,326.267670 95.033546,326.151611 93.836227,326.035522 
z"/>
<path fill="#FFFFFF" opacity="1.000000" stroke="none" 
	d="
M1.000000,330.468658 
	C1.480005,330.001831 1.960009,330.003662 2.799981,330.019135 
	C2.773376,331.890808 2.062502,333.746674 2.049937,335.607239 
	C1.910244,356.292877 1.878596,376.979187 1.408890,397.832672 
	C1.000000,375.645782 1.000000,353.291534 1.000000,330.468658 
z"/>
<path fill="#FEFFFE" opacity="1.000000" stroke="none" 
	d="
M2.547378,104.907623 
	C2.475437,105.444290 2.025269,105.748947 1.287550,106.026794 
	C1.000000,95.979103 1.000000,85.958214 1.000000,75.468658 
	C1.333789,76.464493 1.932224,77.924416 1.957658,79.394241 
	C2.103460,87.820053 2.113222,96.248230 2.547378,104.907623 
z"/>
<path fill="#D7F1CE" opacity="1.000000" stroke="none" 
	d="
M422.000244,340.875305 
	C421.551971,340.926300 421.103699,340.977295 420.000061,340.694031 
	C411.849091,340.252747 404.353516,340.145813 396.857910,340.038849 
	C383.262756,337.870239 369.660492,335.745087 356.076447,333.508911 
	C351.464874,332.749756 346.899414,331.710480 342.106873,330.450989 
	C342.659241,329.342590 343.285217,328.183716 344.195740,327.881165 
	C361.688660,322.068420 378.976807,315.423920 396.797974,310.872406 
	C416.570526,305.822540 437.008453,306.058594 457.324554,307.645325 
	C494.246002,310.528870 530.141357,319.216614 566.590942,327.401978 
	C566.976440,328.242035 566.963379,328.693054 566.950256,329.144104 
	C559.014038,327.637817 551.081360,326.112213 543.138916,324.639252 
	C541.226379,324.284576 539.281372,324.104492 536.876953,323.193665 
	C533.881165,322.373901 531.359619,322.204559 528.838135,322.035217 
	C528.838135,322.035187 528.381775,322.018616 527.849976,321.699585 
	C524.701660,321.038513 522.094727,320.549622 519.467102,320.379639 
	C507.553253,319.608795 495.681793,319.618195 484.038574,322.830627 
	C468.746613,328.208679 453.515045,333.770416 438.119385,338.833130 
	C434.360962,340.069061 430.064270,339.668152 425.232971,340.012634 
	C423.634003,340.295380 422.817108,340.585327 422.000244,340.875305 
z"/>
<path fill="#80BF69" opacity="1.000000" stroke="none" 
	d="
M233.412506,332.927490 
	C232.242767,332.221161 231.510117,331.597412 230.455170,330.902344 
	C240.376968,325.386139 251.426102,322.606110 262.822510,321.012329 
	C286.634094,317.682251 309.745422,322.421021 332.824890,327.268219 
	C334.336578,327.585754 335.591431,329.125977 336.992432,330.467102 
	C316.147156,336.055084 294.921875,338.086914 273.489258,336.881622 
	C261.903595,336.230072 250.386826,334.371368 238.833435,333.107971 
	C237.188278,332.928040 235.511658,333.035583 233.412506,332.927490 
z"/>
<path fill="#D4F0CB" opacity="1.000000" stroke="none" 
	d="
M567.143311,329.493591 
	C566.963379,328.693054 566.976440,328.242035 566.991577,327.453674 
	C579.912781,329.236084 592.792358,331.647217 605.759888,333.410950 
	C628.361694,336.485168 651.036438,337.531036 673.747925,334.325836 
	C675.551636,334.071320 677.390076,334.063843 679.660767,333.986420 
	C675.278687,335.683777 670.513672,337.579926 665.593933,338.899689 
	C662.521667,339.723877 659.216125,339.678772 655.103638,340.004578 
	C644.417908,340.002655 634.643921,340.019958 624.869873,340.037292 
	C611.653259,337.905182 598.421326,335.862640 585.226990,333.600708 
	C579.225098,332.571869 573.297668,331.109039 567.143311,329.493591 
z"/>
<path fill="#85C270" opacity="1.000000" stroke="none" 
	d="
M717.908936,323.477600 
	C707.280518,327.159424 696.541809,330.491608 685.420410,333.876434 
	C686.594299,332.659393 687.958130,330.851990 689.740723,330.213043 
	C697.524353,327.423187 705.402100,324.881714 713.317810,322.488739 
	C714.627319,322.092896 716.295959,322.884888 717.908936,323.477600 
z"/>
<path fill="#F9FDF7" opacity="1.000000" stroke="none" 
	d="
M484.478943,322.901367 
	C495.681793,319.618195 507.553253,319.608795 519.467102,320.379639 
	C522.094727,320.549622 524.701660,321.038513 527.639526,321.610931 
	C513.613708,322.218262 499.266510,322.595215 484.478943,322.901367 
z"/>
<path fill="#F7FCF6" opacity="1.000000" stroke="none" 
	d="
M61.053474,321.413574 
	C71.367432,322.480347 81.898727,323.924683 92.703163,325.612061 
	C88.186890,325.239594 83.397636,324.622803 78.608002,324.009033 
	C72.829109,323.268402 67.049889,322.530304 61.053474,321.413574 
z"/>
<path fill="#F2FBF0" opacity="1.000000" stroke="none" 
	d="
M625.083740,340.427734 
	C634.643921,340.019958 644.417908,340.002655 654.669556,340.011719 
	C653.978638,340.359955 652.810730,340.957367 651.641418,340.959869 
	C642.860291,340.978577 634.078857,340.880066 625.083740,340.427734 
z"/>
<path fill="#F3FBF1" opacity="1.000000" stroke="none" 
	d="
M167.077271,340.426575 
	C176.635223,340.019867 186.410980,340.001923 196.663910,340.010956 
	C195.973160,340.364319 194.805695,340.970520 193.637238,340.972443 
	C184.856628,340.987030 176.075821,340.882507 167.077271,340.426575 
z"/>
<path fill="#F2FAF0" opacity="1.000000" stroke="none" 
	d="
M397.075745,340.427704 
	C404.353516,340.145813 411.849091,340.252747 419.668091,340.618408 
	C412.425476,340.856934 404.859528,340.836731 397.075745,340.427704 
z"/>
<path fill="#F7FCF6" opacity="1.000000" stroke="none" 
	d="
M37.497375,321.049683 
	C44.453850,320.864105 51.873001,320.617401 59.627655,320.606903 
	C52.628788,320.891571 45.294422,320.940033 37.497375,321.049683 
z"/>
<path fill="#F9FDF7" opacity="1.000000" stroke="none" 
	d="
M529.047729,322.406952 
	C531.359619,322.204559 533.881165,322.373901 536.686646,322.828522 
	C534.399475,323.002106 531.828430,322.890381 529.047729,322.406952 
z"/>
<path fill="#F7FCF6" opacity="1.000000" stroke="none" 
	d="
M99.024109,327.389404 
	C100.373131,327.208710 101.909927,327.381775 103.708496,327.835266 
	C102.384132,327.991516 100.798012,327.867340 99.024109,327.389404 
z"/>
<path fill="#F7FCF6" opacity="1.000000" stroke="none" 
	d="
M94.011574,326.378235 
	C95.033546,326.151611 96.230858,326.267670 97.702515,326.620117 
	C96.713539,326.811310 95.450226,326.766144 94.011574,326.378235 
z"/>
<path fill="#F2FAF0" opacity="1.000000" stroke="none" 
	d="
M422.358643,340.942749 
	C422.817108,340.585327 423.634003,340.295380 424.792145,340.021484 
	C424.327972,340.361786 423.522491,340.685974 422.358643,340.942749 
z"/>
</svg>